<mxfile host="Electron" agent="Mozilla/5.0 (X11; Linux x86_64) AppleWebKit/537.36 (KHTML, like Gecko) draw.io/26.0.4 Chrome/128.0.6613.186 Electron/32.2.5 Safari/537.36" version="26.0.4">
  <diagram name="Page-1" id="-El-y4iNdQwHFsP2m_Wz">
    <mxGraphModel dx="928" dy="998" grid="1" gridSize="10" guides="1" tooltips="1" connect="1" arrows="1" fold="1" page="1" pageScale="1" pageWidth="850" pageHeight="1100" math="0" shadow="0">
      <root>
        <mxCell id="0" />
        <mxCell id="1" parent="0" />
        <mxCell id="DIIVUpf5SdoqnQu8IWGj-1" value="&lt;div&gt;E-Commerce&lt;/div&gt;&lt;div&gt;Application&lt;/div&gt;" style="sketch=0;outlineConnect=0;fontColor=#232F3E;gradientColor=none;fillColor=#232F3D;strokeColor=none;dashed=0;verticalLabelPosition=bottom;verticalAlign=top;align=center;html=1;fontSize=12;fontStyle=0;aspect=fixed;pointerEvents=1;shape=mxgraph.aws4.client;" vertex="1" parent="1">
          <mxGeometry x="50" y="230" width="78" height="76" as="geometry" />
        </mxCell>
        <mxCell id="DIIVUpf5SdoqnQu8IWGj-2" value="&lt;div&gt;Analytics&lt;/div&gt;&lt;div&gt;Application&lt;/div&gt;" style="sketch=0;outlineConnect=0;fontColor=#232F3E;gradientColor=none;fillColor=#232F3D;strokeColor=none;dashed=0;verticalLabelPosition=bottom;verticalAlign=top;align=center;html=1;fontSize=12;fontStyle=0;aspect=fixed;pointerEvents=1;shape=mxgraph.aws4.client;" vertex="1" parent="1">
          <mxGeometry x="50" y="410" width="78" height="76" as="geometry" />
        </mxCell>
        <mxCell id="DIIVUpf5SdoqnQu8IWGj-3" value="&lt;div&gt;Marketing&lt;/div&gt;&lt;div&gt;Application&lt;/div&gt;" style="sketch=0;outlineConnect=0;fontColor=#232F3E;gradientColor=none;fillColor=#232F3D;strokeColor=none;dashed=0;verticalLabelPosition=bottom;verticalAlign=top;align=center;html=1;fontSize=12;fontStyle=0;aspect=fixed;pointerEvents=1;shape=mxgraph.aws4.client;" vertex="1" parent="1">
          <mxGeometry x="50" y="590" width="78" height="76" as="geometry" />
        </mxCell>
        <mxCell id="DIIVUpf5SdoqnQu8IWGj-11" style="edgeStyle=orthogonalEdgeStyle;rounded=0;orthogonalLoop=1;jettySize=auto;html=1;" edge="1" parent="1" source="DIIVUpf5SdoqnQu8IWGj-4" target="DIIVUpf5SdoqnQu8IWGj-2">
          <mxGeometry relative="1" as="geometry" />
        </mxCell>
        <mxCell id="DIIVUpf5SdoqnQu8IWGj-22" value="&amp;nbsp;Redacted&lt;div&gt;Object&amp;nbsp;&lt;/div&gt;" style="edgeLabel;html=1;align=center;verticalAlign=middle;resizable=0;points=[];" vertex="1" connectable="0" parent="DIIVUpf5SdoqnQu8IWGj-11">
          <mxGeometry x="-0.0304" relative="1" as="geometry">
            <mxPoint x="-15" as="offset" />
          </mxGeometry>
        </mxCell>
        <mxCell id="DIIVUpf5SdoqnQu8IWGj-8" style="edgeStyle=orthogonalEdgeStyle;rounded=0;orthogonalLoop=1;jettySize=auto;html=1;" edge="1" parent="1" source="DIIVUpf5SdoqnQu8IWGj-5" target="DIIVUpf5SdoqnQu8IWGj-3">
          <mxGeometry relative="1" as="geometry" />
        </mxCell>
        <mxCell id="DIIVUpf5SdoqnQu8IWGj-21" value="&amp;nbsp;Original&lt;div&gt;Object&amp;nbsp;&lt;/div&gt;" style="edgeLabel;html=1;align=center;verticalAlign=middle;resizable=0;points=[];" vertex="1" connectable="0" parent="DIIVUpf5SdoqnQu8IWGj-8">
          <mxGeometry x="-0.0866" y="-1" relative="1" as="geometry">
            <mxPoint x="-20" y="1" as="offset" />
          </mxGeometry>
        </mxCell>
        <mxCell id="DIIVUpf5SdoqnQu8IWGj-12" style="edgeStyle=orthogonalEdgeStyle;rounded=0;orthogonalLoop=1;jettySize=auto;html=1;startArrow=classic;startFill=1;" edge="1" parent="1" source="DIIVUpf5SdoqnQu8IWGj-6" target="DIIVUpf5SdoqnQu8IWGj-4">
          <mxGeometry relative="1" as="geometry" />
        </mxCell>
        <mxCell id="DIIVUpf5SdoqnQu8IWGj-6" value="&lt;div&gt;Redacting&lt;/div&gt;&lt;div&gt;Lambda Function&lt;/div&gt;" style="sketch=0;outlineConnect=0;fontColor=#232F3E;gradientColor=none;fillColor=#ED7100;strokeColor=none;dashed=0;verticalLabelPosition=bottom;verticalAlign=top;align=center;html=1;fontSize=12;fontStyle=0;aspect=fixed;pointerEvents=1;shape=mxgraph.aws4.lambda_function;" vertex="1" parent="1">
          <mxGeometry x="470" y="409" width="77" height="77" as="geometry" />
        </mxCell>
        <mxCell id="DIIVUpf5SdoqnQu8IWGj-9" style="edgeStyle=orthogonalEdgeStyle;rounded=0;orthogonalLoop=1;jettySize=auto;html=1;startArrow=classic;startFill=1;" edge="1" parent="1" source="DIIVUpf5SdoqnQu8IWGj-7" target="DIIVUpf5SdoqnQu8IWGj-5">
          <mxGeometry relative="1" as="geometry" />
        </mxCell>
        <mxCell id="DIIVUpf5SdoqnQu8IWGj-7" value="&lt;div&gt;Enriching&lt;/div&gt;&lt;div&gt;Lambda Function&lt;/div&gt;" style="sketch=0;outlineConnect=0;fontColor=#232F3E;gradientColor=none;fillColor=#ED7100;strokeColor=none;dashed=0;verticalLabelPosition=bottom;verticalAlign=top;align=center;html=1;fontSize=12;fontStyle=0;aspect=fixed;pointerEvents=1;shape=mxgraph.aws4.lambda_function;" vertex="1" parent="1">
          <mxGeometry x="470" y="589" width="77" height="77" as="geometry" />
        </mxCell>
        <mxCell id="DIIVUpf5SdoqnQu8IWGj-15" style="edgeStyle=orthogonalEdgeStyle;rounded=0;orthogonalLoop=1;jettySize=auto;html=1;startArrow=classic;startFill=1;" edge="1" parent="1" source="DIIVUpf5SdoqnQu8IWGj-13" target="DIIVUpf5SdoqnQu8IWGj-1">
          <mxGeometry relative="1" as="geometry" />
        </mxCell>
        <mxCell id="DIIVUpf5SdoqnQu8IWGj-24" value="&amp;nbsp;Original&lt;div&gt;Object&amp;nbsp;&lt;/div&gt;" style="edgeLabel;html=1;align=center;verticalAlign=middle;resizable=0;points=[];" vertex="1" connectable="0" parent="DIIVUpf5SdoqnQu8IWGj-15">
          <mxGeometry x="0.2804" relative="1" as="geometry">
            <mxPoint x="-134" as="offset" />
          </mxGeometry>
        </mxCell>
        <mxCell id="DIIVUpf5SdoqnQu8IWGj-16" style="edgeStyle=orthogonalEdgeStyle;rounded=0;orthogonalLoop=1;jettySize=auto;html=1;" edge="1" parent="1" source="DIIVUpf5SdoqnQu8IWGj-13" target="DIIVUpf5SdoqnQu8IWGj-14">
          <mxGeometry relative="1" as="geometry" />
        </mxCell>
        <mxCell id="DIIVUpf5SdoqnQu8IWGj-13" value="S3 Bucket" style="sketch=0;outlineConnect=0;fontColor=#232F3E;gradientColor=none;fillColor=#7AA116;strokeColor=none;dashed=0;verticalLabelPosition=top;verticalAlign=bottom;align=center;html=1;fontSize=12;fontStyle=0;aspect=fixed;pointerEvents=1;shape=mxgraph.aws4.bucket;labelPosition=center;" vertex="1" parent="1">
          <mxGeometry x="645" y="229" width="75" height="78" as="geometry" />
        </mxCell>
        <mxCell id="DIIVUpf5SdoqnQu8IWGj-17" style="edgeStyle=orthogonalEdgeStyle;rounded=0;orthogonalLoop=1;jettySize=auto;html=1;" edge="1" parent="1" source="DIIVUpf5SdoqnQu8IWGj-14" target="DIIVUpf5SdoqnQu8IWGj-6">
          <mxGeometry relative="1" as="geometry" />
        </mxCell>
        <mxCell id="DIIVUpf5SdoqnQu8IWGj-18" style="edgeStyle=orthogonalEdgeStyle;rounded=0;orthogonalLoop=1;jettySize=auto;html=1;" edge="1" parent="1" source="DIIVUpf5SdoqnQu8IWGj-14" target="DIIVUpf5SdoqnQu8IWGj-7">
          <mxGeometry relative="1" as="geometry">
            <Array as="points">
              <mxPoint x="683" y="620" />
            </Array>
          </mxGeometry>
        </mxCell>
        <mxCell id="DIIVUpf5SdoqnQu8IWGj-14" value="&lt;div&gt;Supporting&lt;/div&gt;&lt;div&gt;S3 Access Point&lt;/div&gt;" style="sketch=0;outlineConnect=0;fontColor=#232F3E;gradientColor=none;fillColor=#7AA116;strokeColor=none;dashed=0;verticalLabelPosition=middle;verticalAlign=middle;align=left;html=1;fontSize=12;fontStyle=0;aspect=fixed;pointerEvents=1;shape=mxgraph.aws4.general_access_points;labelPosition=right;spacingLeft=5;" vertex="1" parent="1">
          <mxGeometry x="650" y="408" width="65" height="78" as="geometry" />
        </mxCell>
        <mxCell id="DIIVUpf5SdoqnQu8IWGj-20" style="edgeStyle=orthogonalEdgeStyle;rounded=0;orthogonalLoop=1;jettySize=auto;html=1;" edge="1" parent="1" source="DIIVUpf5SdoqnQu8IWGj-19" target="DIIVUpf5SdoqnQu8IWGj-7">
          <mxGeometry relative="1" as="geometry">
            <Array as="points">
              <mxPoint x="590" y="749" />
              <mxPoint x="590" y="640" />
            </Array>
          </mxGeometry>
        </mxCell>
        <mxCell id="DIIVUpf5SdoqnQu8IWGj-19" value="Customer Loyalty&lt;div&gt;Database&lt;/div&gt;" style="sketch=0;outlineConnect=0;fontColor=#232F3E;gradientColor=none;fillColor=#232F3D;strokeColor=none;dashed=0;verticalLabelPosition=bottom;verticalAlign=top;align=center;html=1;fontSize=12;fontStyle=0;aspect=fixed;pointerEvents=1;shape=mxgraph.aws4.generic_database;" vertex="1" parent="1">
          <mxGeometry x="653" y="710" width="59" height="78" as="geometry" />
        </mxCell>
        <mxCell id="DIIVUpf5SdoqnQu8IWGj-25" value="AWS Cloud" style="points=[[0,0],[0.25,0],[0.5,0],[0.75,0],[1,0],[1,0.25],[1,0.5],[1,0.75],[1,1],[0.75,1],[0.5,1],[0.25,1],[0,1],[0,0.75],[0,0.5],[0,0.25]];outlineConnect=0;gradientColor=none;html=1;whiteSpace=wrap;fontSize=12;fontStyle=0;container=1;pointerEvents=0;collapsible=0;recursiveResize=0;shape=mxgraph.aws4.group;grIcon=mxgraph.aws4.group_aws_cloud_alt;strokeColor=#232F3E;fillColor=none;verticalAlign=top;align=left;spacingLeft=30;fontColor=#232F3E;dashed=0;" vertex="1" parent="1">
          <mxGeometry x="220" y="200" width="600" height="630" as="geometry" />
        </mxCell>
        <mxCell id="DIIVUpf5SdoqnQu8IWGj-4" value="&lt;div&gt;S3 Object Lambda&lt;/div&gt;&lt;div&gt;Access Point&lt;/div&gt;" style="sketch=0;outlineConnect=0;fontColor=#232F3E;gradientColor=none;fillColor=#7AA116;strokeColor=none;dashed=0;verticalLabelPosition=bottom;verticalAlign=top;align=center;html=1;fontSize=12;fontStyle=0;aspect=fixed;pointerEvents=1;shape=mxgraph.aws4.s3_object_lambda_access_points;" vertex="1" parent="DIIVUpf5SdoqnQu8IWGj-25">
          <mxGeometry x="40" y="209" width="78" height="78" as="geometry" />
        </mxCell>
        <mxCell id="DIIVUpf5SdoqnQu8IWGj-5" value="&lt;div&gt;S3 Object Lambda&lt;/div&gt;&lt;div&gt;Access Point&lt;/div&gt;" style="sketch=0;outlineConnect=0;fontColor=#232F3E;gradientColor=none;fillColor=#7AA116;strokeColor=none;dashed=0;verticalLabelPosition=bottom;verticalAlign=top;align=center;html=1;fontSize=12;fontStyle=0;aspect=fixed;pointerEvents=1;shape=mxgraph.aws4.s3_object_lambda_access_points;" vertex="1" parent="DIIVUpf5SdoqnQu8IWGj-25">
          <mxGeometry x="40" y="388" width="78" height="78" as="geometry" />
        </mxCell>
      </root>
    </mxGraphModel>
  </diagram>
</mxfile>
